<?xml version="1.0" standalone="no"?>
<!DOCTYPE svg PUBLIC "-//W3C//DTD SVG 20010904//EN"
 "http://www.w3.org/TR/2001/REC-SVG-20010904/DTD/svg10.dtd">
<svg version="1.0" xmlns="http://www.w3.org/2000/svg"
 width="259.000000pt" height="194.000000pt" viewBox="0 0 259.000000 194.000000"
 preserveAspectRatio="xMidYMid meet">
<metadata>
Created by potrace 1.16, written by Peter Selinger 2001-2019
</metadata>
<g transform="translate(0.000000,194.000000) scale(0.100000,-0.100000)"
fill="#000000" stroke="none">
<path d="M110 1867 c0 -18 -8 -28 -29 -37 -40 -16 -48 -40 -21 -62 12 -10 28
-18 36 -18 27 0 14 -26 -21 -43 -22 -11 -35 -24 -35 -36 0 -13 11 -24 35 -32
44 -16 44 -31 -1 -52 -43 -21 -42 -46 3 -67 38 -18 42 -37 10 -49 -13 -5 -29
-17 -37 -26 -13 -15 -12 -19 9 -36 13 -11 29 -19 37 -19 8 0 14 -9 14 -20 0
-11 -6 -20 -14 -20 -8 0 -24 -8 -36 -18 -27 -22 -18 -49 21 -57 39 -9 37 -36
-4 -55 -43 -20 -43 -52 1 -65 40 -11 41 -29 2 -45 -54 -22 -45 -80 12 -80 30
0 20 -25 -17 -43 -49 -23 -45 -59 8 -72 37 -10 34 -36 -6 -55 -43 -20 -43 -52
0 -65 42 -12 42 -36 0 -55 -43 -20 -43 -52 1 -65 43 -12 41 -37 -4 -58 -44
-21 -42 -46 4 -66 40 -18 41 -36 2 -50 -51 -17 -49 -65 3 -73 33 -5 30 -31 -6
-53 -42 -27 -42 -56 1 -69 42 -12 41 -28 -3 -49 -47 -22 -47 -51 0 -68 44 -16
45 -39 2 -59 -47 -22 -42 -50 13 -77 l45 -21 1095 -2 c1143 -2 1342 -2 1346 3
10 10 6 507 -4 507 -4 0 -9 -109 -9 -242 -1 -134 -2 -247 -3 -252 0 -5 -371
-6 -892 -3 -491 4 -1040 7 -1220 7 -268 0 -328 2 -328 13 0 8 -10 19 -22 24
-23 11 -23 11 7 23 18 7 58 10 98 7 57 -4 67 -2 63 10 -4 9 -1 13 6 11 23 -8
19 -28 -7 -40 -21 -9 -31 -9 -47 1 -11 7 -23 10 -26 6 -10 -10 20 -25 49 -25
15 0 36 8 48 17 19 16 20 20 8 37 -11 15 -26 18 -95 17 l-82 -1 0 30 c0 20 -5
30 -15 30 -25 0 -17 20 13 31 16 6 53 8 90 5 36 -4 62 -3 62 3 0 5 -6 12 -12
14 -8 4 -9 6 -2 6 6 1 17 -6 25 -15 19 -23 -6 -36 -55 -30 -27 3 -35 2 -25 -5
23 -14 76 -10 94 7 15 15 15 18 -2 36 -14 16 -29 19 -93 17 -74 -2 -75 -2 -78
24 -2 15 -10 27 -18 27 -27 0 -14 18 21 30 22 7 56 9 92 4 53 -6 57 -6 44 10
-14 17 -5 21 18 7 8 -5 11 -16 7 -26 -5 -14 -15 -17 -51 -13 -25 3 -42 2 -39
-3 9 -15 82 -10 98 7 38 38 -2 58 -101 52 l-73 -5 0 28 c0 20 -6 30 -22 35
-21 6 -21 7 7 22 22 11 46 13 98 8 61 -6 69 -4 63 10 -4 10 -1 14 6 12 18 -6
16 -29 -4 -42 -13 -8 -26 -7 -48 1 -16 6 -30 8 -30 3 0 -25 81 -26 104 -1 16
17 16 20 1 35 -18 18 -22 18 -112 16 -60 -1 -63 0 -63 23 0 15 -8 28 -22 34
-22 9 -21 11 16 23 25 8 59 10 98 6 53 -6 60 -5 55 8 -7 18 8 22 19 5 3 -6 -1
-18 -9 -27 -13 -13 -23 -14 -52 -5 -34 11 -51 1 -19 -11 43 -16 104 4 104 34
0 21 -48 34 -117 31 l-73 -2 0 30 c0 21 -5 31 -15 31 -22 0 -18 18 5 25 11 4
44 6 73 5 89 -3 91 -2 76 17 -13 15 -12 15 9 4 27 -14 28 -27 3 -41 -13 -7
-28 -7 -46 0 -36 14 -43 12 -21 -5 27 -21 59 -19 87 5 l24 20 -23 20 c-21 17
-33 19 -98 13 l-74 -6 0 27 c0 18 -7 29 -23 35 -22 9 -22 9 7 20 32 13 108 17
124 7 6 -3 17 -3 26 0 14 5 14 9 4 22 -11 13 -10 14 9 3 13 -6 23 -16 23 -22
0 -16 -49 -30 -70 -19 -28 15 -38 11 -16 -5 27 -20 59 -19 87 4 23 19 23 20 6
38 -14 15 -32 18 -97 16 l-80 -1 0 29 c0 19 -5 29 -15 29 -26 0 -16 18 17 29
19 7 56 9 90 5 38 -4 58 -3 58 4 0 6 -6 13 -12 15 -8 4 -9 6 -2 6 17 1 37 -26
29 -40 -5 -7 -25 -10 -54 -6 -45 4 -45 4 -16 -8 24 -10 36 -10 59 -1 37 15 42
29 20 51 -15 14 -31 17 -96 13 l-78 -5 0 29 c0 18 -5 28 -15 28 -8 0 -15 4
-15 10 0 17 78 31 132 24 49 -7 52 -6 39 9 -7 10 -9 17 -3 17 16 0 34 -28 27
-41 -5 -7 -24 -9 -51 -6 -24 2 -41 1 -38 -4 9 -16 82 -10 99 8 16 16 16 18 -6
36 -20 16 -35 19 -96 15 -72 -5 -73 -5 -73 19 0 15 -8 27 -22 32 l-22 8 22 12
c20 11 97 17 127 11 6 -1 18 -2 29 -1 16 1 17 3 5 18 -13 15 -12 15 8 4 29
-15 29 -29 -1 -42 -17 -8 -29 -8 -44 0 -30 16 -41 13 -18 -4 27 -21 59 -19 87
5 l24 20 -23 19 c-19 17 -33 19 -97 14 l-75 -6 0 32 c0 21 -5 31 -15 31 -21 0
-19 18 3 24 48 13 81 16 103 8 34 -12 59 -4 52 16 -5 16 -4 16 13 0 31 -30 -9
-51 -66 -34 -24 7 -25 7 -5 -9 23 -19 71 -13 95 11 13 14 13 17 -8 34 -19 16
-34 18 -97 14 l-75 -6 0 31 c0 21 -5 31 -15 31 -28 0 -15 18 20 30 21 7 56 9
90 5 36 -5 55 -4 55 3 0 6 -6 13 -12 15 -8 4 -9 6 -2 6 17 1 37 -26 29 -40 -5
-7 -24 -9 -51 -6 -24 2 -41 1 -38 -4 9 -15 90 -10 104 6 10 13 9 19 -6 36 -17
18 -28 20 -96 17 l-78 -3 0 27 c0 19 -5 28 -16 28 -26 0 -10 23 22 32 16 5 56
6 89 2 54 -6 58 -5 46 10 -15 17 -5 21 18 7 8 -5 11 -16 7 -26 -5 -14 -15 -17
-53 -12 -28 3 -40 1 -32 -4 39 -25 116 1 103 34 -8 23 -42 30 -119 25 -65 -4
-65 -4 -65 23 0 19 -6 29 -22 34 -22 6 -21 7 12 22 26 11 52 13 98 9 40 -4 62
-3 62 4 0 5 -5 10 -12 10 -6 0 -9 2 -6 5 9 9 38 -7 38 -21 0 -17 -42 -28 -77
-20 -21 5 -24 4 -13 -4 23 -15 77 -12 94 6 20 19 20 19 0 38 -11 12 -36 16
-95 16 -78 0 -79 0 -79 25 0 16 -6 25 -16 25 -26 0 -10 23 22 32 16 5 55 6 87
3 34 -4 57 -2 57 4 0 5 -6 12 -12 14 -7 3 -8 6 -3 6 21 1 38 -17 31 -34 -5
-15 -14 -17 -54 -11 -32 4 -42 3 -32 -4 34 -22 110 -5 110 25 0 24 -35 35
-114 35 -47 0 -76 4 -76 11 0 7 373 10 1220 8 l1220 -1 2 -447 c1 -245 1 -476
0 -513 -1 -40 2 -68 8 -68 7 0 10 182 10 520 l0 520 -572 0 c-315 0 -871 3
-1235 6 l-663 6 0 -25z"/>
</g>
</svg>
